<svg xmlns="http://www.w3.org/2000/svg" viewBox="0 0 80 80">
  <defs>
    <style>
      .artwork-decorative { fill: #ECECFF; }
      .artwork-minor { fill: #6A6AF4; }
      .artwork-major { fill: #000091; }
    </style>
  </defs>

  <svg id="artwork-decorative">
    <path d="M19,72c-0.5514,0-1-0.4486-1-1s0.4486-1,1-1s1,0.4486,1,1S19.5514,72,19,72z M31,10c-0.5514,0-1-0.4486-1-1  c0-0.55145,0.4486-1,1-1s1,0.44855,1,1C32,9.5514,31.5514,10,31,10z M67,66c-0.5514,0-1-0.4486-1-1s0.4486-1,1-1s1,0.4486,1,1  S67.5514,66,67,66z M67,16c-0.5514,0-1-0.4486-1-1s0.4486-1,1-1s1,0.4486,1,1S67.5514,16,67,16z M9,32c-0.5514,0-1-0.4486-1-1  s0.4486-1,1-1s1,0.4486,1,1S9.5514,32,9,32z"></path>
  </svg>

  <svg id="artwork-minor">
    <path d="M40,14c-0.55231,0-1-0.44769-1-1v-2c0-0.55231,0.44769-1,1-1s1,0.44769,1,1v2C41,13.55231,40.55231,14,40,14z   M40,70c-0.55231,0-1-0.44769-1-1v-2c0-0.55231,0.44769-1,1-1s1,0.44769,1,1v2C41,69.55231,40.55231,70,40,70z M69,39h-2  c-0.55231,0-1,0.44769-1,1s0.44769,1,1,1h2c0.55231,0,1-0.44769,1-1S69.55231,39,69,39z M13,39h-2c-0.55231,0-1,0.44769-1,1  s0.44769,1,1,1h2c0.55231,0,1-0.44769,1-1S13.55231,39,13,39z M59.72021,18.86499l-1.41406,1.41406  c-0.39062,0.39062-0.39062,1.02344,0,1.41406s1.02344,0.39062,1.41406,0l1.41406-1.41406c0.39062-0.39062,0.39062-1.02344,0-1.41406  S60.11084,18.47437,59.72021,18.86499z M21.69434,58.27502l-1.41406,1.41406c-0.39062,0.39062-0.39062,1.02344,0,1.41406  s1.02344,0.39062,1.41406,0l1.41406-1.41406c0.39062-0.39062,0.39062-1.02344,0-1.41406S22.08496,57.88446,21.69434,58.27502z   M58.30566,58.27502c-0.39062-0.39062-1.02344-0.39062-1.41406,0s-0.39062,1.02344,0,1.41406l1.41406,1.41406  c0.39062,0.39062,1.02344,0.39062,1.41406,0s0.39062-1.02344,0-1.41406L58.30566,58.27502z M20.27979,18.86499  c-0.39062-0.39062-1.02344-0.39062-1.41406,0s-0.39062,1.02344,0,1.41406l1.41406,1.41406c0.39062,0.39062,1.02344,0.39062,1.41406,0  s0.39062-1.02344,0-1.41406L20.27979,18.86499z"></path>
  </svg>

  <svg id="artwork-major">
    <path d="M40,54c-7.72021,0-14-6.27979-14-14s6.27979-14,14-14s14,6.27979,14,14S47.72021,54,40,54z M40,28  c-6.61719,0-12,5.38281-12,12s5.38281,12,12,12s12-5.38281,12-12S46.61719,28,40,28z"></path>
  </svg>
</svg>
